{
  "accessors": [
    {
      "name": "Surface_of_glass-mask-3.001-Mesh_0_positions",
      "componentType": 5126,
      "count": 29910,
      "min": [
        -0.6052820086479187,
        0.2271140068769455,
        -0.16135400533676147
      ],
      "max": [
        0.005733000114560127,
        0.8166829943656921,
        0.2280369997024536
      ],
      "type": "VEC3",
      "bufferView": 0,
      "byteOffset": 0
    },
    {
      "name": "Surface_of_glass-mask-3.001-Mesh_0_normals",
      "componentType": 5126,
      "count": 29910,
      "min": [
        -0.9998358488082886,
        -0.9999766945838928,
        -1
      ],
      "max": [
        0.9998822808265686,
        0.9999223351478577,
        1
      ],
      "type": "VEC3",
      "bufferView": 1,
      "byteOffset": 0
    },
    {
      "name": "Surface_of_glass-mask-3.001-Mesh_0_indices",
      "componentType": 5123,
      "count": 179448,
      "min": [
        0
      ],
      "max": [
        29909
      ],
      "type": "SCALAR",
      "bufferView": 2,
      "byteOffset": 0
    },
    {
      "name": "Surface_of_Fe.001-Mesh_0_positions",
      "componentType": 5126,
      "count": 7052,
      "min": [
        -0.5506719946861267,
        0.31039199233055115,
        -0.09121599793434143
      ],
      "max": [
        -0.05809900164604187,
        0.7308380007743835,
        0.1842239946126938
      ],
      "type": "VEC3",
      "bufferView": 0,
      "byteOffset": 358920
    },
    {
      "name": "Surface_of_Fe.001-Mesh_0_normals",
      "componentType": 5126,
      "count": 7052,
      "min": [
        -0.9999528527259827,
        -0.998740553855896,
        -0.9996809959411621
      ],
      "max": [
        0.9995777606964111,
        0.9998733997344971,
        0.9994409680366516
      ],
      "type": "VEC3",
      "bufferView": 1,
      "byteOffset": 358920
    },
    {
      "name": "Surface_of_Fe.001-Mesh_0_indices",
      "componentType": 5123,
      "count": 41952,
      "min": [
        0
      ],
      "max": [
        7051
      ],
      "type": "SCALAR",
      "bufferView": 2,
      "byteOffset": 358896
    },
    {
      "name": "Surface_of_FeS.001-Mesh_0_positions",
      "componentType": 5126,
      "count": 10098,
      "min": [
        -0.5043879747390747,
        0.22946099936962128,
        -0.16495999693870544
      ],
      "max": [
        -0.0676259994506836,
        0.7351449728012085,
        0.13583000004291534
      ],
      "type": "VEC3",
      "bufferView": 0,
      "byteOffset": 443544
    },
    {
      "name": "Surface_of_FeS.001-Mesh_0_normals",
      "componentType": 5126,
      "count": 10098,
      "min": [
        -0.99973464012146,
        -0.9999932646751404,
        -1
      ],
      "max": [
        1,
        0.9997534155845642,
        1
      ],
      "type": "VEC3",
      "bufferView": 1,
      "byteOffset": 443544
    },
    {
      "name": "Surface_of_FeS.001-Mesh_0_indices",
      "componentType": 5123,
      "count": 60528,
      "min": [
        0
      ],
      "max": [
        10097
      ],
      "type": "SCALAR",
      "bufferView": 2,
      "byteOffset": 442800
    }
  ],
  "asset": {
    "generator": "obj2gltf",
    "version": "2.0"
  },
  "buffers": [
    {
      "name": "GEMS",
      "byteLength": 1693296,
      "uri": "data:application/octet-stream;base64,"
    }
  ],
  "bufferViews": [
    {
      "name": "bufferView_0",
      "buffer": 0,
      "byteLength": 564720,
      "byteOffset": 0,
      "byteStride": 12,
      "target": 34962
    },
    {
      "name": "bufferView_1",
      "buffer": 0,
      "byteLength": 564720,
      "byteOffset": 564720,
      "byteStride": 12,
      "target": 34962
    },
    {
      "name": "bufferView_2",
      "buffer": 0,
      "byteLength": 563856,
      "byteOffset": 1129440,
      "target": 34963
    }
  ],
  "materials": [
    {
      "name": "mat_2.001",
      "pbrMetallicRoughness": {
        "baseColorFactor": [
          0.992157,
          0.899656,
          0.927516,
          0.37963
        ],
        "metallicFactor": 0,
        "roughnessFactor": 0.905882353
      },
      "emissiveFactor": [
        0,
        0,
        0
      ],
      "alphaMode": "BLEND",
      "doubleSided": true
    },
    {
      "name": "mat_1.001",
      "pbrMetallicRoughness": {
        "baseColorFactor": [
          0.215686,
          0.509804,
          0.098039,
          1
        ],
        "metallicFactor": 0,
        "roughnessFactor": 0.905882353
      },
      "emissiveFactor": [
        0,
        0,
        0
      ],
      "alphaMode": "OPAQUE",
      "doubleSided": false
    },
    {
      "name": "mat_3.001",
      "pbrMetallicRoughness": {
        "baseColorFactor": [
          0.784314,
          0.741176,
          0.011765,
          1
        ],
        "metallicFactor": 0,
        "roughnessFactor": 0.905882353
      },
      "emissiveFactor": [
        0,
        0,
        0
      ],
      "alphaMode": "OPAQUE",
      "doubleSided": false
    }
  ],
  "meshes": [
    {
      "name": "Surface_of_glass-mask-3.001-Mesh",
      "primitives": [
        {
          "attributes": {
            "POSITION": 0,
            "NORMAL": 1
          },
          "indices": 2,
          "material": 0,
          "mode": 4
        }
      ]
    },
    {
      "name": "Surface_of_Fe.001-Mesh",
      "primitives": [
        {
          "attributes": {
            "POSITION": 3,
            "NORMAL": 4
          },
          "indices": 5,
          "material": 1,
          "mode": 4
        }
      ]
    },
    {
      "name": "Surface_of_FeS.001-Mesh",
      "primitives": [
        {
          "attributes": {
            "POSITION": 6,
            "NORMAL": 7
          },
          "indices": 8,
          "material": 2,
          "mode": 4
        }
      ]
    }
  ],
  "nodes": [
    {
      "name": "Surface_of_glass-mask-3.001",
      "mesh": 0
    },
    {
      "name": "Surface_of_Fe.001",
      "mesh": 1
    },
    {
      "name": "Surface_of_FeS.001",
      "mesh": 2
    }
  ],
  "scene": 0,
  "scenes": [
    {
      "nodes": [
        0,
        1,
        2
      ]
    }
  ]
}
