{
    "asset" : {
        "generator" : "Khronos glTF Blender I/O v1.4.40",
        "version" : "2.0"
    },
    "scene" : 0,
    "scenes" : [
        {
            "name" : "Scene",
            "nodes" : [
                0,
                1,
                2,
                3,
                4
            ]
        }
    ],
    "nodes" : [
        {
            "mesh" : 0,
            "name" : "Surface_of_glass-mask-3.001",
            "rotation" : [
                -0.01695583388209343,
                0.1795205920934677,
                0.0924907699227333,
                0.979249894618988
            ],
            "translation" : [
                0.38071465492248535,
                -0.3820681571960449,
                -0.17671352624893188
            ]
        },
        {
            "mesh" : 1,
            "name" : "Surface_of_Fe.001",
            "rotation" : [
                -0.01695583388209343,
                0.1795205920934677,
                0.0924907699227333,
                0.979249894618988
            ],
            "translation" : [
                0.38071465492248535,
                -0.3820681571960449,
                -0.17671352624893188
            ]
        },
        {
            "mesh" : 2,
            "name" : "Surface_of_FeS.001",
            "rotation" : [
                -0.01695583388209343,
                0.1795205920934677,
                0.0924907699227333,
                0.979249894618988
            ],
            "translation" : [
                0.38071465492248535,
                -0.3820681571960449,
                -0.17671352624893188
            ]
        },
        {
            "name" : "Light",
            "rotation" : [
                0.16907575726509094,
                0.7558803558349609,
                -0.27217137813568115,
                0.570947527885437
            ],
            "translation" : [
                4.076245307922363,
                5.903861999511719,
                -1.0054539442062378
            ]
        },
        {
            "name" : "Camera",
            "rotation" : [
                0.483536034822464,
                0.33687159419059753,
                -0.20870360732078552,
                0.7804827094078064
            ],
            "translation" : [
                7.358891487121582,
                4.958309173583984,
                6.925790786743164
            ]
        }
    ],
    "materials" : [
        {
            "alphaMode" : "BLEND",
            "doubleSided" : true,
            "name" : "mat_2.001",
            "pbrMetallicRoughness" : {
                "baseColorFactor" : [
                    0.992156982421875,
                    0.8996559977531433,
                    0.927515983581543,
                    0.3796299993991852
                ],
                "metallicFactor" : 0,
                "roughnessFactor" : 0.9058823585510254
            }
        },
        {
            "name" : "mat_1.001",
            "pbrMetallicRoughness" : {
                "baseColorFactor" : [
                    0.21568599343299866,
                    0.5098040103912354,
                    0.09803900122642517,
                    1
                ],
                "metallicFactor" : 0,
                "roughnessFactor" : 0.9058823585510254
            }
        },
        {
            "name" : "mat_3.001",
            "pbrMetallicRoughness" : {
                "baseColorFactor" : [
                    0.784313976764679,
                    0.7411760091781616,
                    0.01176500041037798,
                    1
                ],
                "metallicFactor" : 0,
                "roughnessFactor" : 0.9058823585510254
            }
        }
    ],
    "meshes" : [
        {
            "name" : "Surface_of_glass-mask-3.001-Mesh",
            "primitives" : [
                {
                    "attributes" : {
                        "POSITION" : 0,
                        "NORMAL" : 1
                    },
                    "indices" : 2,
                    "material" : 0
                }
            ]
        },
        {
            "name" : "Surface_of_Fe.001-Mesh",
            "primitives" : [
                {
                    "attributes" : {
                        "POSITION" : 3,
                        "NORMAL" : 4
                    },
                    "indices" : 5,
                    "material" : 1
                }
            ]
        },
        {
            "name" : "Surface_of_FeS.001-Mesh",
            "primitives" : [
                {
                    "attributes" : {
                        "POSITION" : 6,
                        "NORMAL" : 7
                    },
                    "indices" : 8,
                    "material" : 2
                }
            ]
        }
    ],
    "accessors" : [
        {
            "bufferView" : 0,
            "componentType" : 5126,
            "count" : 30969,
            "max" : [
                0.005733000114560127,
                0.8166829943656921,
                0.2280369997024536
            ],
            "min" : [
                -0.6052820086479187,
                0.2271140068769455,
                -0.16135400533676147
            ],
            "type" : "VEC3"
        },
        {
            "bufferView" : 1,
            "componentType" : 5126,
            "count" : 30969,
            "type" : "VEC3"
        },
        {
            "bufferView" : 2,
            "componentType" : 5123,
            "count" : 179448,
            "type" : "SCALAR"
        },
        {
            "bufferView" : 3,
            "componentType" : 5126,
            "count" : 7055,
            "max" : [
                -0.05809900164604187,
                0.7308380007743835,
                0.1842239946126938
            ],
            "min" : [
                -0.5506719946861267,
                0.31039199233055115,
                -0.09121599793434143
            ],
            "type" : "VEC3"
        },
        {
            "bufferView" : 4,
            "componentType" : 5126,
            "count" : 7055,
            "type" : "VEC3"
        },
        {
            "bufferView" : 5,
            "componentType" : 5123,
            "count" : 41952,
            "type" : "SCALAR"
        },
        {
            "bufferView" : 6,
            "componentType" : 5126,
            "count" : 10119,
            "max" : [
                -0.0676259994506836,
                0.7351449728012085,
                0.13583000004291534
            ],
            "min" : [
                -0.5043879747390747,
                0.22946099936962128,
                -0.16495999693870544
            ],
            "type" : "VEC3"
        },
        {
            "bufferView" : 7,
            "componentType" : 5126,
            "count" : 10119,
            "type" : "VEC3"
        },
        {
            "bufferView" : 8,
            "componentType" : 5123,
            "count" : 60528,
            "type" : "SCALAR"
        }
    ],
    "bufferViews" : [
        {
            "buffer" : 0,
            "byteLength" : 371628,
            "byteOffset" : 0
        },
        {
            "buffer" : 0,
            "byteLength" : 371628,
            "byteOffset" : 371628
        },
        {
            "buffer" : 0,
            "byteLength" : 358896,
            "byteOffset" : 743256
        },
        {
            "buffer" : 0,
            "byteLength" : 84660,
            "byteOffset" : 1102152
        },
        {
            "buffer" : 0,
            "byteLength" : 84660,
            "byteOffset" : 1186812
        },
        {
            "buffer" : 0,
            "byteLength" : 83904,
            "byteOffset" : 1271472
        },
        {
            "buffer" : 0,
            "byteLength" : 121428,
            "byteOffset" : 1355376
        },
        {
            "buffer" : 0,
            "byteLength" : 121428,
            "byteOffset" : 1476804
        },
        {
            "buffer" : 0,
            "byteLength" : 121056,
            "byteOffset" : 1598232
        }
    ],
    "buffers" : [
        {
            "byteLength" : 1719288,
            "uri" : "data:application/octet-stream;base64,"
        }
    ]
}
